<svg version="1.1" id="Layer_1" xmlns="http://www.w3.org/2000/svg" xmlns:xlink="http://www.w3.org/1999/xlink" x="0px" y="0px"
	 width="100%" viewBox="0 0 504 490" enable-background="new 0 0 504 490" xml:space="preserve">
<path fill="#FFE402" opacity="1.000000" stroke="none" 
	d="
M236.194946,42.413273 
	C330.877716,42.152153 409.290131,105.627769 428.623657,197.803543 
	C450.685028,302.984711 377.882629,409.276093 271.680084,425.915161 
	C202.706818,436.721405 143.717209,416.165710 96.128029,365.214050 
	C66.788010,333.800995 50.447456,295.859283 46.946922,252.914673 
	C41.961052,191.747986 61.614899,139.255905 105.414917,96.481140 
	C139.104355,63.580303 180.186279,46.095791 227.242996,42.888756 
	C230.068634,42.696182 232.898972,42.572811 236.194946,42.413273 
M329.392548,322.882019 
	C358.019318,291.864624 369.941162,255.356750 362.562347,213.805511 
	C350.958069,148.459473 293.175262,105.155350 226.881104,110.841301 
	C153.236664,117.157677 99.816971,190.026825 116.643387,262.023499 
	C127.753662,309.562042 156.937119,341.828583 203.719925,355.639008 
	C251.160400,369.643677 293.199585,357.569946 329.392548,322.882019 
z"/>
</svg>